<svg width="10" height="11" viewBox="0 0 10 11" fill="none" xmlns="http://www.w3.org/2000/svg">
<path d="M5.13843 5.57919C5.80039 5.57919 6.43525 5.31622 6.90333 4.84814C7.37141 4.38006 7.63438 3.7452 7.63438 3.08323C7.63438 2.42127 7.37141 1.78641 6.90333 1.31833C6.43525 0.850246 5.80039 0.58728 5.13843 0.58728C4.47646 0.58728 3.8416 0.850246 3.37352 1.31833C2.90544 1.78641 2.64247 2.42127 2.64247 3.08323C2.64247 3.7452 2.90544 4.38006 3.37352 4.84814C3.8416 5.31622 4.47646 5.57919 5.13843 5.57919ZM4.24729 6.51517C2.32658 6.51517 0.770508 8.07124 0.770508 9.99195C0.770508 10.3117 1.02985 10.5711 1.34965 10.5711H8.9272C9.247 10.5711 9.50634 10.3117 9.50634 9.99195C9.50634 8.07124 7.95027 6.51517 6.02956 6.51517H4.24729Z" fill="black"/>
</svg>
