<svg width="13" height="11" viewBox="0 0 13 11" fill="none" xmlns="http://www.w3.org/2000/svg">
<path d="M4.24591 7.27008C6.37439 7.27008 8.09904 5.82955 8.09904 4.05264C8.09904 2.27574 6.37439 0.835205 4.24591 0.835205C2.11743 0.835205 0.392781 2.27574 0.392781 4.05264C0.392781 4.75829 0.665093 5.41092 1.12636 5.94289C1.06152 6.11473 0.965193 6.26646 0.863307 6.39443C0.774389 6.50777 0.683618 6.59552 0.616929 6.65585C0.583585 6.68509 0.555798 6.70886 0.537273 6.72348C0.528011 6.7308 0.520601 6.73628 0.516896 6.73811L0.513191 6.74177C0.411306 6.81672 0.366846 6.94834 0.407601 7.06717C0.448355 7.18599 0.561355 7.27008 0.689175 7.27008C1.09301 7.27008 1.50056 7.16771 1.83956 7.04157C2.00998 6.97759 2.16929 6.90629 2.30823 6.83317C2.87694 7.11104 3.53827 7.27008 4.24591 7.27008ZM8.69182 4.05264C8.69182 6.10559 6.85603 7.65215 4.68124 7.83679C5.13139 9.19689 6.62447 10.195 8.39543 10.195C9.10307 10.195 9.7644 10.036 10.335 9.75811C10.4739 9.83124 10.6314 9.90253 10.8018 9.96652C11.1408 10.0927 11.5483 10.195 11.9522 10.195C12.08 10.195 12.1948 10.1128 12.2337 9.99211C12.2726 9.87146 12.23 9.73983 12.1263 9.66488L12.1226 9.66123C12.1189 9.65757 12.1115 9.65391 12.1022 9.6466C12.0837 9.63198 12.0559 9.61004 12.0226 9.57896C11.9559 9.51863 11.8651 9.43089 11.7762 9.31754C11.6743 9.18958 11.578 9.03602 11.5131 8.86601C11.9744 8.33586 12.2467 7.68323 12.2467 6.97576C12.2467 5.27929 10.674 3.88812 8.67886 3.76746C8.68627 3.86069 8.68997 3.95576 8.68997 4.05082L8.69182 4.05264Z" fill="black"/>
</svg>
