<svg width="12" height="10" viewBox="0 0 12 10" fill="none" xmlns="http://www.w3.org/2000/svg">
<path d="M1.62994 0.824951C1.04737 0.824951 0.574707 1.31512 0.574707 1.91927C0.574707 2.26353 0.730794 2.58726 0.996802 2.79473L5.78054 6.51541C6.03116 6.7092 6.37411 6.7092 6.62473 6.51541L11.4085 2.79473C11.6745 2.58726 11.8306 2.26353 11.8306 1.91927C11.8306 1.31512 11.3579 0.824951 10.7753 0.824951H1.62994ZM0.574707 3.37836V8.12042C0.574707 8.9252 1.20565 9.57951 1.98169 9.57951H10.4236C11.1996 9.57951 11.8306 8.9252 11.8306 8.12042V3.37836L7.04683 7.09905C6.54559 7.4889 5.85968 7.4889 5.35845 7.09905L0.574707 3.37836Z" fill="white"/>
</svg>
