<svg width="10" height="12" viewBox="0 0 10 12" fill="none" xmlns="http://www.w3.org/2000/svg">
<path d="M5.74279 11.1922C6.91235 9.78086 9.57975 6.36013 9.57975 4.43872C9.57975 2.10841 7.6191 0.217773 5.20247 0.217773C2.78585 0.217773 0.825195 2.10841 0.825195 4.43872C0.825195 6.36013 3.4926 9.78086 4.66215 11.1922C4.94257 11.5286 5.46238 11.5286 5.74279 11.1922ZM5.20247 3.03174C5.58945 3.03174 5.96058 3.17997 6.23421 3.44383C6.50784 3.70769 6.66157 4.06557 6.66157 4.43872C6.66157 4.81188 6.50784 5.16975 6.23421 5.43361C5.96058 5.69747 5.58945 5.8457 5.20247 5.8457C4.8155 5.8457 4.44437 5.69747 4.17074 5.43361C3.89711 5.16975 3.74338 4.81188 3.74338 4.43872C3.74338 4.06557 3.89711 3.70769 4.17074 3.44383C4.44437 3.17997 4.8155 3.03174 5.20247 3.03174Z" fill="white"/>
</svg>
