<svg width="13" height="13" viewBox="0 0 13 13" fill="none" xmlns="http://www.w3.org/2000/svg">
<path d="M4.7758 0.876065C4.59711 0.444443 4.12604 0.21471 3.67586 0.337698L1.63378 0.894629C1.23 1.00602 0.949219 1.37266 0.949219 1.79036C0.949219 7.53138 5.60423 12.1864 11.3453 12.1864C11.763 12.1864 12.1296 11.9056 12.241 11.5018L12.7979 9.45976C12.9209 9.00957 12.6912 8.5385 12.2595 8.35982L10.0318 7.4316C9.65358 7.2738 9.215 7.38287 8.95742 7.70078L8.01992 8.84481C6.38625 8.07207 5.06354 6.74936 4.2908 5.1157L5.43483 4.18052C5.75274 3.92062 5.86181 3.48436 5.70401 3.10611L4.7758 0.878385V0.876065Z" fill="white"/>
</svg>
